<?xml version="1.0" encoding="UTF-8" standalone="no"?>
<svg
   xmlns:dc="http://purl.org/dc/elements/1.1/"
   xmlns:cc="http://creativecommons.org/ns#"
   xmlns:rdf="http://www.w3.org/1999/02/22-rdf-syntax-ns#"
   xmlns:svg="http://www.w3.org/2000/svg"
   xmlns="http://www.w3.org/2000/svg"
   id="svg8"
   version="1.1"
   viewBox="0 0 12.7 12.7"
   height="48"
   width="48">
  <defs
     id="defs2" />
  <metadata
     id="metadata5">
    <rdf:RDF>
      <cc:Work
         rdf:about="">
        <dc:format>image/svg+xml</dc:format>
        <dc:type
           rdf:resource="http://purl.org/dc/dcmitype/StillImage" />
        <dc:title></dc:title>
      </cc:Work>
    </rdf:RDF>
  </metadata>
  <g
     transform="translate(0,-284.29998)"
     id="layer1">
    <g
       transform="matrix(0.15999948,0,0,0.15999948,47.23177,277.96528)"
       id="g880">
      <path
         id="path894"
         d="m -285.24671,108.08797 c -0.31294,-0.18406 -1.11343,-0.23008 -2.15163,-0.12372 -1.52169,0.15591 -1.78738,0.10004 -3.33811,-0.70182 -1.45068,-0.75013 -1.79026,-1.07244 -2.44355,-2.31928 -0.41729,-0.79644 -1.0126,-1.92432 -1.32291,-2.5064 -0.55997,-1.0504 -0.56485,-1.21514 -0.65046,-21.960419 -0.0931,-22.550208 -0.003,-24.575699 1.16939,-26.304108 0.98385,-1.450415 4.2969,-3.101402 7.06395,-3.52017 2.10068,-0.31792 19.61403,-0.376828 22.37415,-0.07526 1.1014,0.120337 1.78155,0.08384 1.97115,-0.10576 0.40219,-0.402187 13.72347,-0.402187 14.12566,0 0.1896,0.189604 0.86975,0.226097 1.97115,0.10576 1.6569,-0.181033 18.72517,-0.238395 22.84831,-0.07679 1.78795,0.07008 2.34266,0.210345 3.57188,0.903197 1.32329,0.745882 1.57512,1.045473 2.77812,3.305014 l 1.32292,2.484779 0.0844,20.902083 c 0.0915,22.665134 -0.003,24.781514 -1.17964,26.376114 -1.04467,1.41597 -4.37094,3.04244 -7.0518,3.44816 -2.10068,0.31792 -19.61403,0.37683 -22.37415,0.0753 -1.1014,-0.12034 -1.78155,-0.0838 -1.97115,0.10576 -0.19453,0.19454 -2.51147,0.2895 -7.06283,0.2895 -4.55136,0 -6.8683,-0.095 -7.06283,-0.2895 -0.18897,-0.18896 -0.87344,-0.22679 -1.97115,-0.10894 -3.12166,0.33518 -20.15997,0.41463 -20.70083,0.0965 z"
         style="fill:#ebebeb;stroke-width:0.26458332" />
      <path
         id="path892"
         d="m -284.49586,107.84115 c -0.099,-0.16013 -0.0772,-0.38128 0.0484,-0.49146 0.87151,-0.76473 17.22672,-12.025559 17.61238,-12.12641 0.46169,-0.120735 0.48146,0.181213 0.41392,6.32146 l -0.0709,6.44826 -8.91191,0.0696 c -6.26703,0.049 -8.96531,-0.0168 -9.09184,-0.22149 z m 22.23082,-0.042 c -0.069,-0.18441 -0.15534,-5.09779 -0.19188,-10.918622 l -0.0664,-10.583334 -16.27187,-0.137382 c -8.94953,-0.07556 -16.30164,-0.164857 -16.33802,-0.198437 -0.0364,-0.03358 -0.0662,-3.037618 -0.0662,-6.675639 0,-3.638021 0.0298,-6.642058 0.0662,-6.675639 0.0364,-0.03358 7.38849,-0.122877 16.33802,-0.198437 l 16.27187,-0.137382 0.13229,-10.847917 0.13229,-10.847917 h 6.74688 6.74687 l 0.1323,10.847917 0.13229,10.847917 16.27187,0.137382 c 8.94953,0.07556 16.30164,0.164856 16.33802,0.198437 0.0364,0.03358 0.0661,3.037618 0.0661,6.675639 0,3.638021 -0.0298,6.642058 -0.0661,6.675639 -0.0364,0.03358 -7.38849,0.122877 -16.33802,0.198437 l -16.27187,0.137382 -0.13229,10.847917 -0.1323,10.847919 -6.68728,0.0707 c -5.20778,0.0551 -6.71504,-0.003 -6.81273,-0.26458 z m 17.78091,0.15324 c -0.0989,-0.0989 -0.17985,-3.0175 -0.17985,-6.48575 0,-4.95931 0.0726,-6.305904 0.33992,-6.305904 0.51193,0 17.78403,12.159644 17.78403,12.520044 0,0.23236 -2.27252,0.33006 -8.88212,0.38185 -4.88518,0.0383 -8.96307,-0.0113 -9.06198,-0.11024 z m -45.85094,-0.74585 c -1.56849,-0.78865 -2.34426,-1.54685 -2.13654,-2.08816 0.0804,-0.20944 4.84792,-3.67128 10.59456,-7.692975 l 10.44842,-7.312162 2.46826,0.07635 2.46826,0.07635 0.0804,1.105136 c 0.0771,1.05959 0.0226,1.14813 -1.32292,2.148353 -4.20514,3.126047 -20.2648,14.189178 -20.71672,14.271268 -0.2917,0.053 -1.13938,-0.20988 -1.88374,-0.58416 z m 62.60442,-8.085478 c -11.755,-8.282067 -11.95482,-8.430186 -11.77187,-8.726213 0.0939,-0.151852 1.72008,-0.261196 3.88464,-0.261196 h 3.72321 l 7.75733,5.427821 c 4.26652,2.985302 7.81834,5.526556 7.89292,5.647226 0.21729,0.35159 -0.32748,2.00697 -0.98036,2.97899 -0.3818,0.56845 -0.83928,0.9126 -1.254,0.94337 -0.46855,0.0348 -3.08098,-1.66225 -9.25187,-6.009998 z m -67.46875,-4.621784 v -4.365625 h 5.93751 c 3.26563,0 6.0004,0.101756 6.07726,0.226123 0.0769,0.124368 -0.12447,0.463465 -0.4474,0.753549 -1.01871,0.915072 -10.95802,7.751578 -11.26971,7.751578 -0.20847,0 -0.29766,-1.308153 -0.29766,-4.365625 z m 73.43686,0.646559 c -5.80962,-4.073538 -6.28555,-4.448027 -6.07855,-4.782963 0.0779,-0.126071 2.81355,-0.229221 6.07918,-0.229221 h 5.93751 v 4.365625 c 0,3.321232 -0.0791,4.363328 -0.33073,4.35602 -0.1819,-0.0053 -2.70524,-1.67454 -5.60741,-3.709461 z M -295.1994,64.072164 c 0,-3.057471 0.0892,-4.365625 0.29766,-4.365625 0.31169,0 10.251,6.836506 11.26971,7.751578 0.32293,0.290083 0.52427,0.629181 0.4474,0.753549 -0.0769,0.124367 -2.81163,0.226123 -6.07726,0.226123 h -5.93751 z m 8.59896,-0.82076 c -4.07458,-2.847616 -7.6149,-5.377203 -7.86736,-5.621304 -0.37948,-0.366901 -0.41339,-0.609124 -0.19568,-1.397626 0.36474,-1.320948 1.36156,-2.728345 1.99805,-2.821008 0.65538,-0.09541 20.84094,13.953655 20.9672,14.593087 0.0761,0.385238 -0.33431,0.432744 -3.70417,0.428786 l -3.78971,-0.0045 z m 42.11285,5.009996 c -0.097,-0.09701 -0.17639,-0.628939 -0.17639,-1.182053 0,-0.90569 0.13809,-1.108303 1.38906,-2.038111 3.57267,-2.655451 20.19328,-14.154998 20.61982,-14.266542 0.57574,-0.15056 3.11408,1.043437 3.77809,1.777159 0.25903,0.286217 0.40519,0.69176 0.32482,0.901207 -0.0804,0.209447 -4.84136,3.666694 -10.57997,7.682771 l -10.43385,7.301958 h -2.3726 c -1.30493,0 -2.45197,-0.07937 -2.54898,-0.176389 z m 16.64842,-0.04973 c -0.0769,-0.124368 0.12447,-0.463466 0.4474,-0.753549 1.01871,-0.915072 10.95802,-7.751578 11.26971,-7.751578 0.20847,0 0.29766,1.308154 0.29766,4.365625 v 4.365625 h -5.93751 c -3.26563,0 -6.0004,-0.101756 -6.07726,-0.226123 z m -47.92255,-10.904858 c -4.79713,-3.357145 -8.72206,-6.24441 -8.72206,-6.416146 0,-0.233819 2.25954,-0.312248 8.99584,-0.312248 h 8.99583 l 0.0709,6.416146 c 0.0567,5.1308 0.002,6.416146 -0.27378,6.416146 -0.18954,0 -4.26955,-2.746754 -9.06668,-6.103898 z m 31.2166,5.767443 c -0.071,-0.18505 -0.097,-3.072316 -0.0578,-6.416146 l 0.0713,-6.079691 h 8.99583 c 6.92508,0 8.99583,0.07465 8.99583,0.324295 0,0.320134 -17.19127,12.507997 -17.64283,12.507997 -0.12823,0 -0.29125,-0.151405 -0.36226,-0.336455 z"
         style="fill:#e19fa5;stroke-width:0.26458332" />
      <path
         id="path890"
         d="m -284.0869,107.62087 c 0,-0.22697 16.43094,-11.856184 17.13177,-12.125231 0.25883,-0.09936 0.33073,1.230913 0.33073,6.119051 v 6.24602 h -8.73125 c -5.0437,0 -8.73125,-0.10129 -8.73125,-0.23984 z m 22.08651,-0.0862 c -0.069,-0.18449 -0.15541,-5.09794 -0.19195,-10.918776 l -0.0664,-10.583333 -16.47031,-0.06815 -16.47031,-0.06815 v -6.610578 -6.610578 l 16.47031,-0.06815 16.47031,-0.06815 0.1323,-10.847917 0.13229,-10.847916 h 6.48229 6.48229 l 0.13229,10.847916 0.13229,10.847917 16.47032,0.06815 16.47031,0.06815 v 6.610578 6.610578 l -16.47031,0.06815 -16.47032,0.06815 -0.13229,10.847917 -0.13229,10.847912 -6.42264,0.0709 c -4.9959,0.0551 -6.45052,-0.004 -6.54814,-0.26459 z m 17.60099,-5.92 c 0,-4.888138 0.0719,-6.218412 0.33073,-6.119051 0.70083,0.269047 17.13177,11.898261 17.13177,12.125231 0,0.13855 -3.68755,0.23984 -8.73125,0.23984 h -8.73125 z m -46.08053,5.11343 c -1.03256,-0.53453 -1.67676,-1.03597 -1.67676,-1.30519 0,-0.27574 3.85516,-3.13424 10.43929,-7.740462 l 10.43929,-7.303278 2.26071,0.07566 2.26071,0.07565 0.0783,0.928513 0.0783,0.928512 -9.05566,6.347529 c -11.02678,7.729166 -12.68005,8.861066 -12.94263,8.861066 -0.11266,0 -0.95937,-0.3906 -1.88159,-0.868 z m 61.70441,-8.755663 c -5.44962,-3.830357 -9.95415,-7.101528 -10.01007,-7.269268 -0.0732,-0.219766 0.85365,-0.304983 3.31726,-0.304983 h 3.41892 l 7.70441,5.357812 c 4.23742,2.946797 7.77826,5.570102 7.86852,5.829572 0.22556,0.64837 -1.24937,3.21545 -1.89131,3.29178 -0.29072,0.0346 -4.63884,-2.85016 -10.40773,-6.904913 z m -66.42388,-3.314936 v -4.259315 h 5.82083 c 3.20146,0 5.82084,0.104368 5.82084,0.231928 0,0.187267 -7.85321,5.808338 -10.89417,7.7977 l -0.7475,0.489003 z m 73.53157,0.247431 c -3.11303,-2.177958 -5.70107,-4.082958 -5.7512,-4.233334 -0.0609,-0.182657 1.84831,-0.273412 5.75175,-0.273412 h 5.84288 v 4.233333 c 0,2.328334 -0.0413,4.233334 -0.0917,4.233334 -0.0504,0 -2.63871,-1.781964 -5.75174,-3.959921 z M -295.1994,63.909443 V 59.64568 l 0.59531,0.390402 c 2.54668,1.670095 10.932,7.676265 11.00226,7.880608 0.0552,0.160552 -2.09768,0.256516 -5.75469,0.256516 h -5.84288 z m 8.44238,-1.173917 c -4.33164,-3.027155 -7.81157,-5.636855 -7.85007,-5.88698 -0.0995,-0.646267 1.45808,-3.227423 1.94752,-3.227423 0.50335,0 20.47892,13.950632 20.47892,14.302163 0,0.143864 -1.44186,0.24992 -3.39772,0.24992 h -3.39773 z m 42.53401,5.26129 c -0.097,-0.09701 -0.17639,-0.550375 -0.17639,-1.007472 0,-0.793965 0.46277,-1.155384 10.36089,-8.091841 5.69849,-3.993415 10.65596,-7.421968 11.01661,-7.619006 0.59367,-0.324351 0.82126,-0.273969 2.40525,0.532438 1.10275,0.561408 1.74954,1.054101 1.74954,1.332711 0,0.282095 -3.77211,3.080972 -10.4257,7.735791 l -10.4257,7.293769 h -2.16406 c -1.19023,0 -2.24343,-0.07937 -2.34044,-0.17639 z m 16.75694,-0.05554 c 0,-0.187267 7.85321,-5.808339 10.89417,-7.7977 l 0.7475,-0.489004 v 4.259316 4.259316 h -5.82083 c -3.20146,0 -5.82084,-0.104368 -5.82084,-0.231928 z m -48.0127,-10.723445 c -4.65163,-3.257623 -8.50132,-6.05439 -8.55486,-6.215039 -0.0697,-0.209138 2.38848,-0.292088 8.65593,-0.292088 h 8.7533 v 6.217708 c 0,3.41974 -0.0893,6.216507 -0.19844,6.215039 -0.10914,-0.0015 -4.00431,-2.667997 -8.65593,-5.92562 z m 31.07937,-0.261111 v -6.246016 h 8.73125 c 5.0437,0 8.73125,0.10129 8.73125,0.239832 0,0.226975 -16.43094,11.856189 -17.13177,12.125234 -0.25883,0.09936 -0.33073,-1.230911 -0.33073,-6.11905 z"
         style="fill:#d75e69;stroke-width:0.26458332" />
      <path
         id="path888"
         d="m -284.0869,107.62087 c 0,-0.22697 16.43094,-11.856184 17.13177,-12.125231 0.25883,-0.09936 0.33073,1.230913 0.33073,6.119051 v 6.24602 h -8.73125 c -5.0437,0 -8.73125,-0.10129 -8.73125,-0.23984 z m 39.6875,-6.00618 c 0,-4.888138 0.0719,-6.218412 0.33073,-6.119051 0.70083,0.269047 17.13177,11.898261 17.13177,12.125231 0,0.13855 -3.68755,0.23984 -8.73125,0.23984 h -8.73125 z m -17.52571,-4.93263 -0.0691,-10.914062 h -16.60265 -16.60264 v -6.482292 -6.482292 h 16.60264 16.60265 l 0.0691,-10.914062 0.0691,-10.914063 h 6.34413 6.34413 l 0.0691,10.914063 0.0691,10.914062 h 16.60265 16.60264 v 6.482292 6.482292 h -16.60264 -16.60265 l -0.0691,10.914062 -0.0691,10.91406 h -6.34413 -6.34413 z m -28.09184,10.1118 c -1.56556,-0.78122 -2.10086,-1.33559 -1.68496,-1.74501 0.18643,-0.18352 4.85919,-3.49546 10.38389,-7.359868 l 10.04493,-7.026193 h 2.20882 2.20881 l -0.0829,0.859896 c -0.0779,0.808175 -0.72483,1.309463 -10.75543,8.334375 -5.86989,4.11096 -10.81098,7.46974 -10.98021,7.46394 -0.16922,-0.006 -0.77355,-0.24301 -1.34294,-0.52714 z m 61.43578,-8.934012 c -5.34274,-3.7401 -9.71829,-6.889481 -9.72344,-6.998621 -0.005,-0.109141 1.39523,-0.198438 3.11196,-0.198438 h 3.12132 l 7.61244,5.317287 c 4.18683,2.924508 7.67434,5.478634 7.75001,5.675834 0.20232,0.52722 -1.24008,3.03212 -1.73726,3.01696 -0.23153,-0.007 -4.7923,-3.07292 -10.13503,-6.813022 z m -66.61823,-3.202327 v -4.259315 h 5.82083 c 3.20146,0 5.82084,0.104368 5.82084,0.231928 0,0.187267 -7.85321,5.808338 -10.89417,7.7977 l -0.7475,0.489003 z m 73.53157,0.247431 c -3.11303,-2.177958 -5.70107,-4.082958 -5.7512,-4.233334 -0.0609,-0.182657 1.84831,-0.273412 5.75175,-0.273412 h 5.84288 v 4.233333 c 0,2.328334 -0.0413,4.233334 -0.0917,4.233334 -0.0504,0 -2.63871,-1.781964 -5.75174,-3.959921 z M -295.1994,63.909443 V 59.64568 l 0.59531,0.390402 c 2.54668,1.670095 10.932,7.676265 11.00226,7.880608 0.0552,0.160552 -2.09768,0.256516 -5.75469,0.256516 h -5.84288 z m 67.73333,4.031835 c 0,-0.187267 7.85321,-5.808339 10.89417,-7.7977 l 0.7475,-0.489004 v 4.259316 4.259316 h -5.82083 c -3.20146,0 -5.82084,-0.104368 -5.82084,-0.231928 z m -59.11312,-5.350756 c -4.17933,-2.924955 -7.66117,-5.480718 -7.73744,-5.679472 -0.16652,-0.433935 0.92791,-2.472774 1.52638,-2.843529 0.33684,-0.208671 2.45749,1.155754 10.24331,6.590538 5.4002,3.769529 9.82272,6.942986 9.82783,7.052126 0.005,0.109141 -1.40159,0.198438 -3.12601,0.198438 h -3.13531 z m 42.49376,4.458205 c 0.0773,-0.801606 0.612,-1.231464 7.88811,-6.341234 14.33279,-10.065439 13.59137,-9.598333 14.60208,-9.199542 0.48182,0.190114 1.27404,0.638765 1.76047,0.997004 0.73783,0.543385 0.82554,0.70935 0.52917,1.001314 -0.19539,0.192483 -4.87547,3.511756 -10.40019,7.376162 l -10.04492,7.026192 h -2.20882 -2.20881 z m -31.39334,-9.830894 c -4.65163,-3.257623 -8.50132,-6.05439 -8.55486,-6.215039 -0.0697,-0.209138 2.38848,-0.292088 8.65593,-0.292088 h 8.7533 v 6.217708 c 0,3.41974 -0.0893,6.216507 -0.19844,6.215039 -0.10914,-0.0015 -4.00431,-2.667997 -8.65593,-5.92562 z m 31.07937,-0.261111 v -6.246016 h 8.73125 c 5.0437,0 8.73125,0.10129 8.73125,0.239832 0,0.226975 -16.43094,11.856189 -17.13177,12.125234 -0.25883,0.09936 -0.33073,-1.230911 -0.33073,-6.11905 z"
         style="fill:#d13543;stroke-width:0.26458332" />
      <path
         id="path886"
         d="m -284.0869,107.62087 c 0,-0.22697 16.43094,-11.856184 17.13177,-12.125231 0.25883,-0.09936 0.33073,1.230913 0.33073,6.119051 v 6.24602 h -8.73125 c -5.0437,0 -8.73125,-0.10129 -8.73125,-0.23984 z m 39.6875,-6.00618 c 0,-4.888138 0.0719,-6.218412 0.33073,-6.119051 0.70083,0.269047 17.13177,11.898261 17.13177,12.125231 0,0.13855 -3.68755,0.23984 -8.73125,0.23984 h -8.73125 z m -17.19792,-4.96638 c 0,-8.758185 -0.0658,-10.737805 -0.36495,-10.986117 -0.26753,-0.222027 -4.75279,-0.283651 -16.80111,-0.230833 l -16.43614,0.07205 v -6.217708 -6.217708 l 16.43614,0.07205 c 12.04832,0.05282 16.53358,-0.0088 16.80111,-0.230833 0.29919,-0.248312 0.36495,-2.227932 0.36495,-10.986118 v -10.68322 h 6.08542 6.08542 v 10.683228 c 0,8.758186 0.0658,10.737806 0.36495,10.986118 0.26753,0.222027 4.75279,0.283651 16.8011,0.230833 l 16.43615,-0.07205 v 6.217708 6.217708 l -16.43615,-0.07205 c -12.04831,-0.05282 -16.53357,0.0088 -16.8011,0.230833 -0.29919,0.248312 -0.36495,2.227932 -0.36495,10.986117 v 10.683232 h -6.08542 -6.08542 z m -28.49282,9.87684 c -0.60964,-0.30578 -1.23462,-0.708 -1.38884,-0.89382 -0.21593,-0.26018 2.07685,-1.98883 9.97198,-7.518401 l 10.25239,-7.180537 2.05052,-0.0024 c 1.99023,-0.0024 2.05052,0.01622 2.05052,0.634142 0,0.538322 -1.61827,1.769176 -10.47756,7.969205 -5.76266,4.032901 -10.67399,7.381001 -10.91406,7.440221 -0.24008,0.0592 -0.9353,-0.14252 -1.54495,-0.4483 z m 62.2272,-8.477049 c -4.94771,-3.488605 -9.23396,-6.511681 -9.525,-6.717945 -0.47019,-0.333227 -0.20478,-0.376338 2.38125,-0.386789 l 2.91041,-0.01175 7.54063,5.282147 c 4.14734,2.905181 7.57007,5.434306 7.60605,5.620286 0.0984,0.5087 -1.08167,2.44258 -1.52779,2.50364 -0.21435,0.0293 -4.43784,-2.80098 -9.38555,-6.289591 z m -67.33646,-3.39058 v -4.259315 h 5.82083 c 3.20146,0 5.82084,0.104368 5.82084,0.231928 0,0.187267 -7.85321,5.808338 -10.89417,7.7977 l -0.7475,0.489003 z m 73.53157,0.247431 c -3.11303,-2.177958 -5.70107,-4.082958 -5.7512,-4.233334 -0.0609,-0.182657 1.84831,-0.273412 5.75175,-0.273412 h 5.84288 v 4.233333 c 0,2.328334 -0.0413,4.233334 -0.0917,4.233334 -0.0504,0 -2.63871,-1.781964 -5.75174,-3.959921 z M -295.1994,63.909443 V 59.64568 l 0.59531,0.390402 c 2.54668,1.670095 10.932,7.676265 11.00226,7.880608 0.0552,0.160552 -2.09768,0.256516 -5.75469,0.256516 h -5.84288 z m 67.73333,4.031835 c 0,-0.187267 7.85321,-5.808339 10.89417,-7.7977 l 0.7475,-0.489004 v 4.259316 4.259316 h -5.82083 c -3.20146,0 -5.82084,-0.104368 -5.82084,-0.231928 z m -58.87892,-5.472705 c -4.06956,-2.846506 -7.51225,-5.287228 -7.65043,-5.423827 -0.30504,-0.301566 0.74138,-2.580745 1.27972,-2.787326 0.2782,-0.106753 17.98882,11.950075 19.3312,13.160054 0.14112,0.127204 -1.02325,0.226565 -2.65497,0.226565 h -2.90631 z m 42.47476,4.538813 c 0,-0.538247 1.62559,-1.775332 10.51718,-8.003646 7.89028,-5.526916 10.69778,-7.360014 11.24019,-7.339052 0.86483,0.03342 3.00477,1.382478 2.68002,1.689539 -0.12541,0.118585 -4.75239,3.381362 -10.28219,7.250618 l -10.05416,7.035011 -2.05052,0.0021 c -1.99011,0.0021 -2.05052,-0.01667 -2.05052,-0.634561 z m -31.60854,-9.789553 c -4.65163,-3.257623 -8.50132,-6.05439 -8.55486,-6.215039 -0.0697,-0.209138 2.38848,-0.292088 8.65593,-0.292088 h 8.7533 v 6.217708 c 0,3.41974 -0.0893,6.216507 -0.19844,6.215039 -0.10914,-0.0015 -4.00431,-2.667997 -8.65593,-5.92562 z m 31.07937,-0.261111 v -6.246016 h 8.73125 c 5.0437,0 8.73125,0.10129 8.73125,0.239832 0,0.226975 -16.43094,11.856189 -17.13177,12.125234 -0.25883,0.09936 -0.33073,-1.230911 -0.33073,-6.11905 z"
         style="fill:#cd1929;stroke-width:0.26458332" />
      <path
         id="path884"
         d="m -284.0869,107.62087 c 0,-0.22697 16.43094,-11.856184 17.13177,-12.125231 0.25883,-0.09936 0.33073,1.230913 0.33073,6.119051 v 6.24602 h -8.73125 c -5.0437,0 -8.73125,-0.10129 -8.73125,-0.23984 z m 39.6875,-6.00618 c 0,-4.888138 0.0719,-6.218412 0.33073,-6.119051 0.70083,0.269047 17.13177,11.898261 17.13177,12.125231 0,0.13855 -3.68755,0.23984 -8.73125,0.23984 h -8.73125 z m -50.8,-6.957169 v -4.259315 h 5.82083 c 3.20146,0 5.82084,0.104368 5.82084,0.231928 0,0.187267 -7.85321,5.808338 -10.89417,7.7977 l -0.7475,0.489003 z m 73.53157,0.247431 c -3.11303,-2.177958 -5.70107,-4.082958 -5.7512,-4.233334 -0.0609,-0.182657 1.84831,-0.273412 5.75175,-0.273412 h 5.84288 v 4.233333 c 0,2.328334 -0.0413,4.233334 -0.0917,4.233334 -0.0504,0 -2.63871,-1.781964 -5.75174,-3.959921 z M -295.1994,63.909443 V 59.64568 l 0.59531,0.390402 c 2.54668,1.670095 10.932,7.676265 11.00226,7.880608 0.0552,0.160552 -2.09768,0.256516 -5.75469,0.256516 h -5.84288 z m 67.73333,4.031835 c 0,-0.187267 7.85321,-5.808339 10.89417,-7.7977 l 0.7475,-0.489004 v 4.259316 4.259316 h -5.82083 c -3.20146,0 -5.82084,-0.104368 -5.82084,-0.231928 z m -48.0127,-10.723445 c -4.65163,-3.257623 -8.50132,-6.05439 -8.55486,-6.215039 -0.0697,-0.209138 2.38848,-0.292088 8.65593,-0.292088 h 8.7533 v 6.217708 c 0,3.41974 -0.0893,6.216507 -0.19844,6.215039 -0.10914,-0.0015 -4.00431,-2.667997 -8.65593,-5.92562 z m 31.07937,-0.261111 v -6.246016 h 8.73125 c 5.0437,0 8.73125,0.10129 8.73125,0.239832 0,0.226975 -16.43094,11.856189 -17.13177,12.125234 -0.25883,0.09936 -0.33073,-1.230911 -0.33073,-6.11905 z"
         style="fill:#2e4a91;stroke-width:0.26458332" />
      <path
         id="path882"
         d="m -282.98577,107.34273 c 0.11103,-0.32406 15.50233,-11.123691 15.85314,-11.123691 0.15677,0 0.22681,2.154529 0.18276,5.622401 l -0.0714,5.62239 -8.027,0.0701 c -5.19738,0.0454 -7.99545,-0.022 -7.9375,-0.19116 z m 39.02734,0.077 c -0.28065,-0.28065 -0.20995,-11.200691 0.0725,-11.200691 0.34458,0 15.73746,10.801411 15.84658,11.119781 0.0999,0.29142 -15.62864,0.37137 -15.9191,0.0809 z M -295.1994,94.47094 c 0,-3.656724 0.0479,-4.110966 0.41851,-3.96875 0.23019,0.08833 2.62136,0.160599 5.31372,0.160599 2.94777,0 4.86011,0.09913 4.80701,0.24918 -0.0485,0.137048 -2.32062,1.810035 -5.04914,3.717745 -2.72851,1.907712 -4.96093,3.581519 -4.96093,3.71957 0,0.138055 -0.11907,0.251005 -0.26459,0.251005 -0.16508,0 -0.26458,-1.552839 -0.26458,-4.129349 z m 78.84583,3.878344 c 0,-0.138051 -2.23242,-1.811858 -4.96093,-3.71957 -2.72852,-1.90771 -5.00063,-3.580697 -5.04914,-3.717745 -0.0531,-0.150051 1.85924,-0.24918 4.80701,-0.24918 2.69236,0 5.08353,-0.07227 5.31371,-0.160599 0.37062,-0.142216 0.41852,0.312026 0.41852,3.96875 0,2.57651 -0.0995,4.129349 -0.26458,4.129349 -0.14552,0 -0.26459,-0.11295 -0.26459,-0.251005 z M -295.1994,64.100472 c 0,-2.576511 0.0995,-4.129349 0.26458,-4.129349 0.14552,0 0.26459,0.1111 0.26459,0.246889 0,0.135789 2.26107,1.83243 5.02461,3.770312 2.76354,1.937883 5.02573,3.612721 5.02709,3.721861 0.001,0.109141 -2.19046,0.198438 -4.87069,0.198438 -2.68023,0 -5.06148,0.07227 -5.29167,0.160599 -0.37061,0.142216 -0.41851,-0.312026 -0.41851,-3.96875 z m 73.86477,3.874572 c -2.9626,-0.04519 -5.07706,-0.180364 -5.02708,-0.321384 0.0474,-0.133869 2.31869,-1.804251 5.04721,-3.711963 2.72851,-1.907711 4.96093,-3.581518 4.96093,-3.71957 0,-0.138052 0.11907,-0.251004 0.26459,-0.251004 0.16501,0 0.26458,1.543402 0.26458,4.101041 0,2.255573 -0.0893,4.074004 -0.19844,4.040955 -0.10914,-0.03305 -2.49944,-0.09518 -5.31179,-0.138075 z m -53.88873,-11.0769 c -4.2201,-2.974316 -7.71319,-5.525485 -7.76241,-5.669265 -0.058,-0.169396 2.73611,-0.236756 7.9375,-0.191358 l 8.027,0.07006 0.0714,5.622396 c 0.0561,4.415451 -7.9e-4,5.617417 -0.26458,5.599204 -0.1848,-0.01275 -3.7888,-2.456722 -8.00891,-5.431037 z m 31.14943,-0.168167 0.0714,-5.622396 8.027,-0.07006 c 5.19737,-0.04536 7.99545,0.02202 7.9375,0.191162 -0.11102,0.324063 -15.50233,11.12369 -15.85314,11.12369 -0.15677,0 -0.22681,-2.154528 -0.18276,-5.622396 z"
         style="fill:#00227b;stroke-width:0.26458332" />
    </g>
  </g>
</svg>
