<?xml version="1.0" encoding="UTF-8" standalone="no"?>
<svg
   xmlns:dc="http://purl.org/dc/elements/1.1/"
   xmlns:cc="http://creativecommons.org/ns#"
   xmlns:rdf="http://www.w3.org/1999/02/22-rdf-syntax-ns#"
   xmlns:svg="http://www.w3.org/2000/svg"
   xmlns="http://www.w3.org/2000/svg"
   id="svg8"
   version="1.1"
   viewBox="0 0 12.7 12.7"
   height="48"
   width="48">
  <defs
     id="defs2" />
  <metadata
     id="metadata5">
    <rdf:RDF>
      <cc:Work
         rdf:about="">
        <dc:format>image/svg+xml</dc:format>
        <dc:type
           rdf:resource="http://purl.org/dc/dcmitype/StillImage" />
        <dc:title></dc:title>
      </cc:Work>
    </rdf:RDF>
  </metadata>
  <g
     transform="translate(0,-284.29998)"
     id="layer1">
    <g
       transform="matrix(0.15992239,0,0,0.15992239,64.620774,305.00426)"
       id="g75">
      <path
         id="path89"
         d="m -397.70655,-61.188809 c -2.04582,-0.63095 -4.34384,-2.299499 -5.24463,-3.808042 -1.08704,-1.820448 -1.13687,-3.030758 -1.05315,-25.579936 0.0797,-21.457353 0.0829,-21.569633 0.65181,-22.800643 0.77076,-1.66775 2.55776,-3.55258 4.18014,-4.40897 l 1.33354,-0.70393 h 33.46979 33.46979 l 1.33354,0.70393 c 1.62238,0.85639 3.40938,2.74122 4.18014,4.40897 0.56892,1.23101 0.57213,1.34329 0.65181,22.800643 0.0837,22.549178 0.0339,23.759488 -1.05315,25.579936 -0.67263,1.126439 -2.0556,2.309709 -3.73304,3.193994 l -1.3793,0.727112 -33.07291,0.04547 c -18.19011,0.02501 -33.37058,-0.04633 -33.73438,-0.158533 z"
         style="fill:#ececec;stroke-width:0.26458332" />
      <path
         id="path87"
         d="m -397.88536,-61.586809 c -0.60767,-0.191159 -1.52522,-0.607361 -2.03901,-0.924899 -1.31447,-0.812389 -3.26393,-3.05635 -3.65552,-4.207769 -0.24655,-0.724916 -0.35066,-5.210132 -0.411,-17.705747 l -0.0808,-16.734896 h 39.70265 39.70265 l -0.0808,16.734896 c -0.0607,12.571976 -0.16365,16.978961 -0.41383,17.716029 -0.49293,1.452208 -2.74229,3.767722 -4.4973,4.629557 l -1.5055,0.73931 -32.80833,0.05054 c -26.46723,0.04077 -33.02188,-0.01664 -33.91319,-0.297021 z"
         style="fill:#e89b9f;stroke-width:0.26458332" />
      <path
         id="path85"
         d="m -397.32607,-61.718135 c -1.30199,-0.315746 -3.52833,-1.638083 -4.36794,-2.594343 -0.42681,-0.486113 -1.10322,-1.504526 -1.50314,-2.26314 l -0.72711,-1.379294 -0.0756,-16.602604 -0.0756,-16.602604 h 39.70635 39.70635 l -0.0756,16.602604 -0.0756,16.602604 -0.72711,1.379294 c -1.05153,1.994699 -2.07612,3.047506 -3.95993,4.06898 l -1.66296,0.901726 -32.67604,0.04162 c -17.97183,0.02289 -33.04061,-0.04679 -33.48619,-0.154845 z"
         style="fill:#7e8eb7;stroke-width:0.26458332" />
      <path
         id="path83"
         d="m -397.32607,-61.718135 c -1.30199,-0.315746 -3.52833,-1.638083 -4.36794,-2.594343 -0.42681,-0.486113 -1.10322,-1.504526 -1.50314,-2.26314 l -0.72711,-1.379294 -0.0756,-16.470312 -0.0756,-16.470316 h 39.70649 39.70649 l -0.0756,16.470316 -0.0756,16.470312 -0.72711,1.379294 c -1.05153,1.994699 -2.07612,3.047506 -3.95993,4.06898 l -1.66296,0.901726 -32.67604,0.04162 c -17.97183,0.02289 -33.04061,-0.04679 -33.48619,-0.154845 z"
         style="fill:#d95b60;stroke-width:0.26458332" />
      <path
         id="path81"
         d="m -397.45505,-62.094954 c -0.66204,-0.179988 -1.64086,-0.597424 -2.17515,-0.927637 -1.32523,-0.819039 -3.00991,-2.786336 -3.3932,-3.962435 -0.17385,-0.533437 -0.44766,-1.054788 -0.60847,-1.158557 -0.20688,-0.133493 -0.31455,-4.950209 -0.36817,-16.470313 l -0.0758,-16.281644 h 39.70676 39.70676 l -0.0758,16.281644 c -0.0536,11.520104 -0.16129,16.33682 -0.36817,16.470313 -0.16081,0.103769 -0.43658,0.631036 -0.61281,1.171704 -0.47106,1.445178 -2.45346,3.503507 -4.20057,4.361455 l -1.50881,0.740929 -32.41146,0.05089 c -25.0524,0.03934 -32.68476,-0.02342 -33.61517,-0.276352 z"
         style="fill:#cb1f26;stroke-width:0.26458332" />
      <path
         id="path79"
         d="m -404.05655,-89.915328 v -10.980212 h 39.6875 39.6875 v 10.980212 10.980208 h -39.6875 -39.6875 z"
         style="fill:#57376d;stroke-width:0.26458332" />
      <path
         id="path77"
         d="m -404.05655,-90.113766 v -10.781774 h 39.6875 39.6875 v 10.781774 10.781771 h -39.6875 -39.6875 z"
         style="fill:#203f8a;stroke-width:0.26458332" />
    </g>
  </g>
</svg>
