<?xml version="1.0" encoding="UTF-8" standalone="no"?>
<svg
   xmlns:dc="http://purl.org/dc/elements/1.1/"
   xmlns:cc="http://creativecommons.org/ns#"
   xmlns:rdf="http://www.w3.org/1999/02/22-rdf-syntax-ns#"
   xmlns:svg="http://www.w3.org/2000/svg"
   xmlns="http://www.w3.org/2000/svg"
   id="svg8"
   version="1.1"
   viewBox="0 0 12.7 12.7"
   height="48"
   width="48">
  <defs
     id="defs2" />
  <metadata
     id="metadata5">
    <rdf:RDF>
      <cc:Work
         rdf:about="">
        <dc:format>image/svg+xml</dc:format>
        <dc:type
           rdf:resource="http://purl.org/dc/dcmitype/StillImage" />
        <dc:title></dc:title>
      </cc:Work>
    </rdf:RDF>
  </metadata>
  <g
     transform="translate(0,-284.29998)"
     id="layer1">
    <path
       d="m 6.5255892,286.06897 c -2.0822978,-0.0381 -4.123326,0.6029 -5.81622887,1.84187 -0.20567378,0.15053 -0.45273352,0.35101 -0.49232328,0.39956 -0.26768224,0.32799 -0.28872846,0.75516 -0.0542057,1.10088 0.1378705,0.20325 0.38666813,0.35147 0.63258764,0.37721 0.22875681,0.0239 0.44512961,-0.0371 0.64488151,-0.18217 0.4437435,-0.32237 0.7663796,-0.52093 1.2176751,-0.74827 0.4103243,-0.20671 0.7315816,-0.33985 1.1483812,-0.47612 1.6446674,-0.53771 3.44244,-0.53768 5.086965,0 0.4147683,0.1356 0.7402147,0.27049 1.1483802,0.47612 0.451302,0.22735 0.768314,0.42255 1.217676,0.74827 0.105019,0.0762 0.167563,0.10858 0.272705,0.14361 0.119154,0.0396 0.246334,0.0534 0.364913,0.0392 0.417788,-0.0497 0.73993,-0.36855 0.795763,-0.78795 0.0341,-0.25614 -0.06423,-0.54608 -0.247557,-0.72926 -0.06688,-0.0668 -0.355408,-0.29194 -0.56497,-0.44092 -1.323363,-0.94075 -2.8485982,-1.5232 -4.460526,-1.70384 -0.2982638,-0.0334 -0.5966456,-0.0528 -0.8941168,-0.058 z m -0.2699117,3.18865 c -0.1969684,0.002 -0.3903365,0.007 -0.478911,0.0162 -1.0650214,0.0999 -1.9999268,0.39235 -2.8963793,0.90642 -0.2675375,0.1534 -0.3487601,0.21657 -0.4470584,0.34702 -0.2906631,0.38574 -0.2564166,0.91709 0.08103,1.25456 0.08076,0.0808 0.1615962,0.13703 0.2687938,0.18719 0.1217394,0.0571 0.2072843,0.0772 0.3621175,0.0815 0.2288765,0.007 0.3643026,-0.0319 0.6158227,-0.17939 0.1868119,-0.10962 0.5061072,-0.26693 0.6923817,-0.34145 0.4463064,-0.17843 0.8844058,-0.28759 1.3707926,-0.34144 0.188671,-0.0199 0.6724414,-0.0291 0.871205,-0.0144 0.6871171,0.0501 1.3105845,0.21999 1.9178804,0.5225 0.1076997,0.0536 0.2476626,0.12858 0.3107054,0.16654 0.2010511,0.12099 0.3200047,0.16846 0.4772347,0.18999 v -5.6e-4 c 0.2316461,0.0315 0.4915225,-0.0373 0.6823224,-0.18107 0.467107,-0.35198 0.520933,-1.00985 0.116794,-1.42668 -0.07517,-0.0775 -0.179191,-0.15124 -0.3548527,-0.25203 -0.970925,-0.55671 -1.9841499,-0.86166 -3.0897314,-0.92988 -0.1026167,-0.006 -0.3031777,-0.007 -0.5001467,-0.005 z m 0.2475589,3.18137 c -0.4198597,-0.017 -0.8429246,0.0357 -1.2517635,0.15927 -0.1556907,0.047 -0.413672,0.14814 -0.5264111,0.20621 -0.1525732,0.0784 -0.2685192,0.21152 -0.3213233,0.36994 -0.022623,0.0683 -0.025523,0.0925 -0.025704,0.20173 -1.623e-4,0.11172 0.00217,0.13195 0.026266,0.2006 0.051551,0.14708 0.054286,0.14977 0.7029993,0.80081 0.3445109,0.34574 0.6395863,0.63424 0.6823229,0.66667 0.1183515,0.0898 0.2423866,0.14474 0.3939701,0.17491 0.089159,0.0177 0.2335839,0.018 0.3257938,5.6e-4 0.1560456,-0.0297 0.2787338,-0.0835 0.4001173,-0.17546 0.04263,-0.0324 0.3387367,-0.32127 0.6828814,-0.66667 0.204981,-0.20571 0.2653814,-0.27148 0.363235,-0.37275 0.0068,-0.008 0.01893,-0.0246 0.022913,-0.0297 0.016165,-0.0197 0.037534,-0.0343 0.056441,-0.0513 0.0064,-0.006 0.023124,-0.0233 0.029059,-0.0297 0.00428,-0.006 0.0075,-0.0113 0.015649,-0.0225 0.073623,-0.0993 0.1178826,-0.14965 0.1626176,-0.18329 0.022818,-0.0369 0.037833,-0.0699 0.052529,-0.11178 0.024252,-0.0686 0.027007,-0.0888 0.026823,-0.2006 -1.708e-4,-0.10916 -0.00348,-0.1334 -0.026266,-0.20174 -0.052804,-0.15842 -0.1681911,-0.29154 -0.3207644,-0.36994 -0.045251,-0.0233 -0.1530533,-0.0702 -0.2397351,-0.10443 -0.3952174,-0.15639 -0.8117859,-0.24385 -1.2316455,-0.26098 z"
       style="fill:#000000;stroke-width:0.00955192"
       id="path75" />
    <path
       style="fill:#020202;stroke-width:0.00883301"
       d="m 11.701351,311.01979 c -0.21082,-0.0569 -0.359909,-0.19632 -0.425307,-0.39765 -0.01878,-0.0578 -0.02307,-0.0883 -0.02354,-0.16782 -5.29e-4,-0.11575 0.01455,-0.1802 0.06688,-0.28266 0.03428,-0.0671 0.05848,-0.0931 0.480632,-0.51701 0.244509,-0.24549 0.444559,-0.45007 0.444559,-0.45462 0,-0.004 -0.19786,-0.20715 -0.439686,-0.45021 -0.475707,-0.47813 -0.483119,-0.48693 -0.528948,-0.62741 -0.01846,-0.0566 -0.02322,-0.0892 -0.02396,-0.16342 -0.0011,-0.11267 0.0108,-0.16507 0.06197,-0.272 0.03216,-0.0673 0.0519,-0.0947 0.109174,-0.15198 0.05727,-0.0573 0.08473,-0.077 0.151988,-0.10917 0.106931,-0.0511 0.159325,-0.0631 0.271997,-0.062 0.07427,5.3e-4 0.106825,0.005 0.163409,0.0239 0.140498,0.0457 0.149285,0.0532 0.627422,0.52896 0.243064,0.24182 0.445653,0.43967 0.450208,0.43967 0.0047,0 0.209138,-0.20005 0.454625,-0.44455 0.423848,-0.42215 0.449903,-0.44638 0.517004,-0.48064 0.102456,-0.0523 0.166916,-0.0676 0.282656,-0.0668 0.07937,4.8e-4 0.110105,0.004 0.167827,0.0235 0.183184,0.0592 0.311726,0.18417 0.380473,0.3697 0.0192,0.0519 0.02476,0.0845 0.02809,0.16633 0.0047,0.12198 -0.0072,0.18066 -0.0608,0.29126 -0.03598,0.0743 -0.04095,0.0797 -0.481352,0.52134 -0.244741,0.24545 -0.444987,0.45202 -0.444987,0.45905 0,0.007 0.196199,0.20965 0.435994,0.45029 0.466191,0.4678 0.482643,0.48709 0.527551,0.61859 0.02693,0.0788 0.03365,0.23764 0.0135,0.3182 -0.05336,0.21318 -0.224813,0.38464 -0.437977,0.43799 -0.08057,0.0202 -0.239426,0.0134 -0.318217,-0.0135 -0.131489,-0.0449 -0.150782,-0.0613 -0.618592,-0.52756 -0.24063,-0.23979 -0.443262,-0.43599 -0.450288,-0.43599 -0.007,0 -0.213587,0.20024 -0.459032,0.44499 -0.44183,0.44056 -0.447014,0.44535 -0.521347,0.48131 -0.04132,0.02 -0.09877,0.0423 -0.127727,0.0497 -0.06495,0.0165 -0.213656,0.0166 -0.274176,2.3e-4 z m -3.4790925,-2.19122 c -0.140175,-0.0279 -0.254835,-0.0788 -0.364279,-0.16179 -0.03952,-0.03 -0.312822,-0.29687 -0.631404,-0.61659 -0.59989,-0.60203 -0.602048,-0.6045 -0.649719,-0.74051 -0.02227,-0.0635 -0.0247,-0.0821 -0.02455,-0.18541 1.7e-4,-0.10095 0.0032,-0.12348 0.02412,-0.18665 0.04883,-0.14648 0.155565,-0.2696 0.296655,-0.34217 0.104254,-0.0537 0.342849,-0.14701 0.486822,-0.19053 0.756137,-0.22854 1.5656356,-0.19552 2.29658,0.0937 0.080158,0.0317 0.1799839,0.0753 0.2218296,0.0968 0.1410899,0.0725 0.2478259,0.19568 0.2966549,0.34217 0.02106,0.0632 0.02397,0.0857 0.02412,0.18664 1.69e-4,0.10336 -0.0021,0.12188 -0.02455,0.18542 -0.04767,0.136 -0.04983,0.13847 -0.6497243,0.7405 -0.3182436,0.3194 -0.5919226,0.58665 -0.6313454,0.61655 -0.1122478,0.0851 -0.2255538,0.13482 -0.3698548,0.1622 -0.08527,0.0162 -0.218968,0.016 -0.301416,-3.6e-4 z m 2.9756115,-2.92835 c -0.145396,-0.0199 -0.255729,-0.0636 -0.441648,-0.17549 -0.0583,-0.0351 -0.187481,-0.10435 -0.287074,-0.15396 -0.5615891,-0.27974 -1.1384557,-0.43685 -1.7738585,-0.48313 -0.183804,-0.0134 -0.630907,-0.005 -0.805378,0.0134 -0.44978,0.0498 -0.854821,0.15069 -1.267537,0.31569 -0.172255,0.0689 -0.46763,0.21461 -0.640382,0.31597 -0.23259,0.13648 -0.35809,0.17298 -0.569741,0.16568 -0.14318,-0.004 -0.222215,-0.0227 -0.334792,-0.0755 -0.09913,-0.0464 -0.173905,-0.0985 -0.248587,-0.17323 -0.312049,-0.31206 -0.343827,-0.80335 -0.07504,-1.16006 0.0909,-0.12062 0.166014,-0.1789 0.413416,-0.32078 0.828983,-0.47538 1.693638,-0.74604 2.678503,-0.83844 0.163816,-0.0154 0.715592,-0.0211 0.9053786,-0.01 1.0223721,0.0631 1.9596299,0.34514 2.8574809,0.85996 0.162441,0.0932 0.2583,0.16126 0.327814,0.23296 0.373722,0.38546 0.32392,0.99345 -0.108032,1.31894 -0.17644,0.13295 -0.416309,0.19665 -0.63052,0.16744 z M 3.2393355,303.8066 c -0.227411,-0.0238 -0.457499,-0.16101 -0.584993,-0.34896 -0.216872,-0.3197 -0.197436,-0.71475 0.0501,-1.01804 0.03661,-0.0449 0.265221,-0.23038 0.455415,-0.36958 1.789132,-1.3094 3.998661,-1.89672 6.2051863,-1.64946 1.4906092,0.16705 2.9012682,0.70598 4.1250292,1.57593 0.193792,0.13776 0.460424,0.34592 0.522277,0.40772 0.169526,0.1694 0.26057,0.43744 0.229045,0.67431 -0.05163,0.38783 -0.349535,0.68287 -0.735879,0.72875 -0.109654,0.0131 -0.227232,4.1e-4 -0.337416,-0.0362 -0.09723,-0.0324 -0.155078,-0.0629 -0.252185,-0.13326 -0.415542,-0.3012 -0.708875,-0.48133 -1.12621,-0.69157 -0.377446,-0.19016 -0.678423,-0.31497 -1.061974,-0.44036 -1.5207537,-0.49722 -3.1832855,-0.49719 -4.7041705,6e-5 -0.38543,0.12601 -0.682327,0.24914 -1.061769,0.4403 -0.41733,0.21023 -0.715863,0.39359 -1.126209,0.69169 -0.184718,0.1342 -0.384684,0.19076 -0.596224,0.16866 z"
       id="path77" />
  </g>
</svg>
